<svg width="32" height="24" viewBox="10 7 32 24" fill="none" xmlns="http://www.w3.org/2000/svg">
  <path d="M28.6743 22.5892C27.8782 23.12 26.9534 23.4005 26 23.4005C25.0466 23.4005 24.1219 23.12 23.3258 22.5892L10.2131 13.8472C10.1403 13.7987 10.0694 13.7481 10 13.6961V28.0209C10 29.6633 11.3328 30.9667 12.9458 30.9667H39.0541C40.6965 30.9667 41.9999 29.6339 41.9999 28.0209V13.696C41.9304 13.7482 41.8594 13.7989 41.7864 13.8474L28.6743 22.5892Z" fill="url(#paint0)"/>
  <path d="M11.2531 12.287L24.3658 21.0291C24.8622 21.3601 25.4311 21.5255 25.9999 21.5255C26.5689 21.5255 27.1378 21.36 27.6342 21.0291L40.7469 12.287C41.5316 11.7642 42 10.8892 42 9.94481C42 8.321 40.6789 7 39.0552 7H12.9448C11.3211 7.00006 10 8.32106 10 9.94637C10 10.8892 10.4685 11.7642 11.2531 12.287Z" fill="url(#paint1)"/>
  <defs>
    <linearGradient id="paint0" x1="26" y1="13.696" x2="41.8085" y2="36.7859" gradientUnits="userSpaceOnUse">
      <stop stop-color="#F0D399"/>
      <stop offset="1" stop-color="#D9A846"/>
    </linearGradient>
    <linearGradient id="paint1" x1="26" y1="7" x2="38.3343" y2="28.4203" gradientUnits="userSpaceOnUse">
      <stop stop-color="#F0D399"/>
      <stop offset="1" stop-color="#D9A846"/>
    </linearGradient>
  </defs>
</svg>
